<?xml version="1.0" encoding="UTF-8" standalone="no"?>
<!-- Created with Inkscape (http://www.inkscape.org/) -->

<svg
   width="210mm"
   height="297mm"
   viewBox="0 0 210 297"
   version="1.1"
   id="svg1"
   xml:space="preserve"
   xmlns="http://www.w3.org/2000/svg"
   xmlns:svg="http://www.w3.org/2000/svg"><defs
     id="defs1" /><g
     id="layer1"><path
       id="path1"
       style="fill:#000000"
       d="M 103.30481,11.998234 99.203764,12.29279 C 76.043646,13.955019 57.380921,21.504647 40.333972,36.107357 34.159965,41.396116 25.27639,51.365371 23.347929,55.169242 c -0.261839,0.516479 -0.855673,1.39804 -1.319299,1.959054 -0.463627,0.561012 -1.043155,1.442979 -1.288294,1.95957 -0.245139,0.516593 -0.957717,1.730357 -1.583366,2.69751 -0.625648,0.967153 -1.238236,2.10977 -1.361157,2.538863 -0.12292,0.429094 -0.6142,1.494173 -1.091406,2.367297 -0.477206,0.873125 -1.388744,2.540002 -2.026233,3.704167 -0.637489,1.164166 -1.168296,2.219997 -1.179256,2.34611 -0.04488,0.510944 -1.315656,2.561512 -1.839681,4.268473 l -0.670244,2.318205 c -0.368386,1.274947 -0.77862,2.525104 -0.912089,2.778125 -0.1334689,0.253022 -0.3889842,1.174296 -0.5674069,2.04742 -0.1784228,0.873125 -0.4741237,1.885157 -0.6573242,2.248959 -0.4235177,0.841027 -1.8155201,6.544957 -2.3569621,9.657291 -0.4111214,2.363221 -0.6919771,4.886114 -1.2510865,11.244794 l -0.2909383,3.30781 0.1576132,5.55625 0.1576131,5.55625 0.3963582,3.04219 c 0.7422315,5.70229 0.9099434,6.74724 1.5931844,9.92187 1.0437796,4.84987 2.1813741,8.95281 3.1905031,11.50473 0.502523,1.2708 0.917824,2.47679 0.922424,2.67942 0.0046,0.20262 0.361756,1.0793 0.79375,1.94872 0.431996,0.86942 0.784965,1.73937 0.784965,1.93321 0,0.36968 4.279941,8.96908 5.032768,10.11205 0.23962,0.36381 1.42579,2.32834 2.636015,4.36562 l 2.200382,3.70469 1.505851,1.71979 c 0.828031,0.94588 1.65947,2.01745 1.84795,2.38125 0.188479,0.3638 0.554089,0.86441 0.812353,1.11259 0.258264,0.24818 1.125339,1.31974 1.927014,2.38125 l 1.457792,1.93012 3.002401,2.9099 c 1.651427,1.60072 4.399123,4.24756 6.105571,5.88129 l 3.102653,2.97036 1.011824,0.51625 c 1.040801,0.53098 3.819977,2.61261 3.970301,2.97398 0.165828,0.39866 3.64622,2.82203 5.074625,3.53312 0.800363,0.39844 1.931459,1.11001 2.513542,1.5813 0.582083,0.47127 1.35599,0.94868 1.719792,1.06091 0.363801,0.11222 1.733457,0.7542 3.043225,1.42679 2.395889,1.23035 5.26208,2.59031 8.201566,3.89123 2.316616,1.02527 7.278414,2.67998 10.31875,3.44114 1.455207,0.36432 4.550835,1.14975 6.879167,1.74511 2.328331,0.59535 4.572884,1.14051 4.987809,1.21181 l 0.754476,0.12971 -0.357601,0.23048 -0.357601,0.22996 0.859896,-0.16485 0.859896,-0.16536 v 0.29765 0.29817 l 1.389062,0.0264 c 0.763984,0.0145 1.68672,0.10784 2.050521,0.20774 l 0.661459,0.18138 1.115694,1.97508 c 0.613422,1.08617 1.436802,2.62991 1.829862,3.43028 1.008258,2.05306 3.756918,6.85306 4.489128,7.83983 0.33819,0.45577 0.81397,1.32739 1.05782,1.93683 0.24386,0.60945 1.45468,3.09382 2.69079,5.52111 l 2.24793,4.41369 -0.44494,1.71979 c -0.82302,3.18141 -1.21878,4.88176 -1.72392,7.40833 -0.99537,4.97853 -1.11175,5.7855 -1.77561,12.30313 l -0.13487,1.32291 0.52348,1.65933 0.524,1.65933 -0.13901,1.1188 -0.13953,1.11879 -0.70331,0.79375 c -1.2291,1.38641 -2.28177,3.08295 -4.02094,6.48178 l -1.692408,3.30677 v 1.94355 1.94407 l 0.793748,0.65836 c 0.43656,0.36219 1.15093,0.82228 1.5875,1.02268 l 0.79375,0.36431 0.95912,0.0103 c 0.52751,0.006 1.31837,-0.0615 1.75751,-0.14935 l 0.7984,-0.15968 1.99885,-1.89755 1.99884,-1.89808 0.83096,-1.84485 c 0.45681,-1.01475 1.49294,-3.2073 2.3027,-4.87205 l 1.47226,-3.02669 0.06,-1.92081 0.0599,-1.92082 0.42892,-0.42891 c 0.23601,-0.23602 0.44807,-0.56953 0.47077,-0.74104 0.13652,-1.0295 0.21616,-1.98818 0.21704,-2.60449 l 0.001,-0.70487 1.10846,-0.94878 c 0.60964,-0.52182 1.21239,-0.94878 1.33946,-0.94878 0.12707,0 1.02845,-0.5217 2.00297,-1.15962 l 1.77199,-1.15962 1.71979,-1.69085 c 0.94589,-0.92982 3.27512,-3.29487 5.17643,-5.25601 l 3.45715,-3.56619 0.97462,-1.4826 0.97513,-1.48259 v -0.76843 -0.76895 l -0.52916,-0.33073 -0.52917,-0.33021 v -0.5364 -0.53589 l -1.19217,-2.10064 c -0.65548,-1.1552 -1.6789,-2.84759 -2.27428,-3.76101 l -1.08263,-1.66088 0.20723,-1.85209 c 0.11394,-1.01865 0.22156,-3.87615 0.23926,-6.35 l 0.032,-4.49791 0.58394,-1.89343 0.58395,-1.89342 2.28719,-2.07533 c 1.25807,-1.14132 2.44366,-2.25392 2.63447,-2.4722 3.7553,-4.29614 4.79251,-5.03961 9.19737,-6.59133 l 2.35334,-0.82889 c 3.41863,-1.5337 4.75419,-2.27882 7.82227,-4.15532 l 1.14411,-0.555 c 1.38709,-0.67332 4.5623,-2.66448 5.61206,-3.51917 0.42015,-0.34207 1.62955,-1.21698 2.68769,-1.94458 5.31211,-3.65272 10.64074,-8.69175 17.76688,-16.80105 1.48379,-1.68848 4.1492,-5.27886 4.61574,-6.2177 0.21694,-0.43657 0.52993,-1.03188 0.69556,-1.32292 0.16562,-0.29104 0.71846,-1.60073 1.22887,-2.91042 l 0.92811,-2.38125 -1.06609,1.19063 -1.06608,1.19062 0.41341,-1.02061 0.41289,-1.02009 -0.15244,-0.2465 -0.15193,-0.24598 0.55087,-1.05678 c 0.30294,-0.58121 0.54547,-1.26135 0.53847,-1.51153 l -0.0119,-0.45476 -0.36328,0.79375 -0.36329,0.79375 -0.0217,-0.38395 -0.0212,-0.38396 -0.7276,1.08366 c -0.71859,1.0701 -3.49261,4.57904 -3.61994,4.57904 -0.0944,0 2.16913,-4.42684 3.90261,-7.63209 4.40072,-8.13703 8.17565,-17.58642 9.95184,-24.91166 0.44107,-1.819 0.75762,-2.89056 0.70332,-2.38125 -0.17847,1.67351 -1.41891,6.97147 -2.11718,9.04235 -0.37665,1.11706 -0.68472,2.19613 -0.68472,2.3983 0,0.20216 -0.41671,1.65322 -0.92604,3.22461 -0.50932,1.5714 -0.92391,3.05216 -0.92191,3.29024 l 0.005,0.43305 0.78445,-1.32292 c 0.92131,-1.55318 1.00419,-1.34799 0.25322,0.62787 -0.84493,2.22304 -0.48651,1.8173 0.63148,-0.71469 0.5573,-1.26216 1.25321,-2.82823 1.54616,-3.4804 0.61285,-1.36438 1.42237,-4.08505 2.69906,-9.06922 0.84279,-3.2902 1.24796,-5.26977 2.12338,-10.38231 l 0.36226,-2.11667 0.0289,0.79995 c 0.033,0.91568 -1.17413,8.0534 -1.56683,9.26456 -0.14345,0.44243 -0.42931,1.57353 -0.63511,2.51354 -0.72121,3.29418 -2.49749,9.93435 -3.31504,12.39356 -0.45391,1.36536 -0.78357,2.60745 -0.73277,2.76003 l 0.0925,0.27751 0.63872,-1.56942 c 0.35112,-0.86309 0.65986,-1.71239 0.68626,-1.88722 0.0264,-0.17483 0.34572,-0.94873 0.70952,-1.71979 0.96888,-2.05349 2.41975,-6.53794 3.32848,-10.28826 1.54719,-6.38525 2.34156,-12.35825 2.83032,-21.27571 l 0.15968,-2.91041 -0.28991,-4.10105 c -0.66093,-9.35204 -0.70653,-9.71536 -2.18488,-17.462495 -1.53959,-8.068047 -4.26043,-16.424073 -8.107,-24.896155 l -1.85053,-4.07572 -1.15135,-1.771985 c -0.63318,-0.974378 -1.74666,-2.743526 -2.47427,-3.931543 -0.7276,-1.188018 -2.09683,-3.319345 -3.04271,-4.736145 l -1.71979,-2.57607 -2.91041,-3.389974 c -1.60073,-1.86451 -3.57383,-4.055785 -4.38475,-4.86947 -2.13483,-2.142116 -7.38785,-7.021805 -8.31525,-7.724593 -0.43657,-0.330826 -1.35556,-1.116796 -2.04277,-1.746147 -0.68721,-0.629351 -1.5295,-1.250683 -1.87172,-1.380794 -0.34221,-0.130111 -1.86349,-1.058288 -3.38068,-2.062407 l -2.759,-1.825211 -6.26163,-3.357935 c -3.44394,-1.846869 -6.38201,-3.357934 -6.52932,-3.357934 -0.14731,0 -0.42525,-0.152825 -0.61754,-0.339515 -0.79243,-0.769336 -2.04075,-1.476565 -3.78943,-2.147155 -1.01864,-0.390635 -2.38787,-0.934019 -3.04271,-1.207162 -1.31192,-0.547217 -3.15876,-1.040115 -7.51788,-2.006596 -1.58826,-0.35214 -3.67185,-0.870695 -4.63021,-1.152384 -2.58414,-0.759557 -4.30473,-1.059141 -7.79849,-1.358574 -1.7302,-0.148286 -3.63521,-0.377031 -4.23334,-0.507979 l -1.08778,-0.238228 -4.7625,-0.179834 z m 4.89582,16.990694 1.38906,0.0031 c 3.45805,0.0081 10.72572,0.910065 15.06368,1.869653 1.26371,0.27954 2.51387,0.512598 2.77813,0.517798 0.42337,0.0084 7.43251,2.34262 11.06392,3.68453 8.92621,3.298486 20.76453,11.057855 26.70948,17.506941 3.02941,3.286295 5.81905,6.526271 6.57738,7.638811 0.44636,0.654843 1.25218,1.726406 1.79059,2.38125 3.81906,4.644971 8.96837,14.069061 11.92692,21.828125 4.84446,12.705028 6.42326,27.795684 4.31808,41.275004 -0.20454,1.30968 -0.49817,3.258 -0.65267,4.32996 -0.15449,1.07198 -0.39748,2.16712 -0.54002,2.43345 -0.14253,0.26633 -0.42953,1.3536 -0.63717,2.41639 -0.44367,2.27095 -1.35207,5.11826 -2.51613,7.88582 -0.45906,1.09141 -1.14108,2.87734 -1.51567,3.96875 -0.37459,1.09141 -0.8497,2.34156 -1.05626,2.77813 l -0.37569,0.79375 0.67231,-0.79375 c 0.36976,-0.43657 0.67261,-0.90282 0.67334,-1.0356 0.002,-0.31255 1.62823,-2.85004 1.74925,-2.72903 0.0506,0.0506 -0.14858,0.72444 -0.44235,1.49758 -0.29377,0.77315 -0.49307,1.52879 -0.44287,1.67949 l 0.0915,0.2744 1.04438,-2.09238 1.04438,-2.09238 0.0811,0.97617 0.0811,0.97617 -0.41186,1.38699 c -0.22654,0.76284 -0.41028,1.45467 -0.40928,1.53737 0.007,0.44716 1.63918,-2.84782 2.51354,-5.07514 1.18327,-3.01424 1.3753,-3.14763 0.69918,-0.48524 l -0.48731,1.91978 0.11627,0.60927 0.11628,0.60874 0.63613,-0.0367 0.63614,-0.0362 0.001,-0.26458 c 0.002,-0.37988 1.30769,-3.49948 1.31569,-3.14245 0.003,0.1636 -0.1724,0.80399 -0.39068,1.42265 -0.21828,0.61868 -0.39099,1.37759 -0.38499,1.68672 l 0.0114,0.56224 0.53692,-1.01751 c 0.72471,-1.37371 0.85886,-1.09643 0.37259,0.7705 -0.56278,2.16066 -0.48241,2.33637 0.2961,0.64389 0.70838,-1.54001 2.73989,-7.57014 2.73989,-8.13284 0,-0.18266 0.23492,-1.01683 0.52193,-1.85415 l 0.52193,-1.52239 0.66818,-4.10104 c 1.45112,-8.90725 1.69285,-10.989 1.99988,-17.19792 l 0.216,-4.36562 -0.10335,5.95312 -0.10387,5.95313 -0.52193,4.10104 c -0.57886,4.54714 -1.45522,8.95955 -2.65359,13.36146 -0.43579,1.60073 -1.08648,3.99615 -1.4459,5.32319 -1.37581,5.07969 -4.88489,13.17351 -7.37165,17.00361 l -1.09657,1.68879 -0.10542,-0.31626 -0.10542,-0.31626 -0.47801,0.43253 -0.47749,0.43202 -0.15813,-0.49713 -0.15761,-0.49713 0.23358,-1.17564 c 0.12848,-0.64663 0.31881,-1.41376 0.42271,-1.7048 l 0.18862,-0.52917 -0.83457,0.92604 -0.8351,0.92604 0.28164,-0.57826 c 0.15485,-0.31785 0.28164,-0.87331 0.28164,-1.23455 v -0.6568 l -0.30231,-0.10077 -0.30282,-0.10077 0.32401,-0.60565 c 0.75368,-1.40825 -0.0218,-0.70288 -1.18701,1.07952 -2.12877,3.25634 -2.06711,2.91762 0.43822,-2.40605 0.71204,-1.51306 1.29449,-2.80838 1.29449,-2.87838 0,-0.07 -0.60753,0.81104 -1.3503,1.9575 -0.74278,1.14646 -1.4478,2.18817 -1.56683,2.31511 l -0.21653,0.23099 0.22945,-1.01699 c 0.30677,-1.36024 0.10315,-1.46758 -0.82166,-0.43253 l -0.77205,0.86403 v -0.80151 -0.8015 l 1.32654,-2.96364 c 0.72966,-1.62994 1.22479,-2.84866 1.10019,-2.70836 -0.38246,0.43069 -4.60598,8.16777 -4.66018,8.53694 -0.028,0.19068 -1.25101,2.15556 -2.71767,4.36666 l -2.6665,4.02043 -2.50424,2.91042 c -3.7624,4.37252 -9.65412,9.71873 -13.05295,11.84423 -0.59522,0.37223 -1.25588,0.85021 -1.46813,1.06247 -0.3558,0.3558 -1.90496,1.2485 -2.16679,1.2485 -0.28619,0 -0.71732,-1.65195 -0.9648,-3.69744 l -0.2713,-2.24224 -0.007,-3.44631 -0.007,-3.4463 -0.67128,-1.85208 c -0.72356,-1.9966 -2.10827,-6.32932 -3.1595,-9.88622 l -0.6537,-2.2133 0.27647,-1.73323 0.27698,-1.73271 -1.02784,-2.1394 -1.02785,-2.13889 -1.65829,-2.05931 -1.6583,-2.0593 -1.47691,-1.20251 c -1.53906,-1.25371 -3.71929,-2.48409 -4.4018,-2.48409 -0.21818,0 -0.78768,-0.19184 -1.26556,-0.42633 l -0.86919,-0.42633 -1.35238,-1.62419 -1.35289,-1.62419 -0.17673,-0.97152 -0.17673,-0.97203 0.27285,-0.16847 0.27233,-0.16846 v -1.94975 c 0,-1.07229 0.12826,-2.87009 0.28474,-3.99511 0,0 0.11703,-1.31391 0.0713,-1.96913 -0.0279,-0.39956 -0.2098,-1.18313 -0.2098,-1.18313 l -0.45321,-0.90925 c 0,0 -0.0715,-0.39576 -0.88909,-0.97411 -0.92645,-0.65533 -1.81238,-2.28 -3.64267,-2.53162 0,0 -0.67049,-0.17873 -1.01415,-0.21471 -0.60133,-0.063 -1.20923,0 -1.81384,0 -0.60479,0 -1.22181,-0.12107 -1.81436,0 -0.45391,0.0927 -1.27848,0.54518 -1.27848,0.54518 -0.70336,0.29993 -1.89311,0.96729 -2.64376,1.4826 l -1.36478,0.9369 -1.08055,1.45882 -1.08056,1.45831 -0.27905,1.03715 -0.27957,1.03714 0.70797,2.04122 0.70797,2.04122 0.23151,3.28145 0.23202,3.28146 0.54002,1.81332 0.54002,1.81333 0.64286,0.42116 0.64285,0.42116 0.99891,0.0383 c 0.5494,0.0209 1.29656,-0.0559 1.66036,-0.17054 l 0.66146,-0.20825 -0.92036,0.80925 -0.92036,0.80977 0.50023,1.78232 c 0.27496,0.98026 0.55145,2.34874 0.61495,3.04116 l 0.11576,1.25884 -0.79737,1.53169 c -0.43845,0.84245 -0.97904,2.22863 -1.20148,3.08043 l -0.40462,1.54874 -0.97462,0.99839 -0.97462,0.99839 -0.34778,3.00808 -0.34727,3.0086 -1.04179,3.17139 c -0.57283,1.74447 -1.47163,4.04298 -1.99781,5.1077 l -0.95705,1.93579 0.14779,0.58912 0.1478,0.58911 -0.41393,0.34313 c -0.22764,0.18892 -0.41393,0.49328 -0.41393,0.67593 0,0.18264 -0.16787,0.47097 -0.3731,0.6413 l -0.37311,0.31006 -0.43718,1.96629 -0.4377,1.9668 -0.31109,0.19224 -0.31109,0.19224 0.65887,0.17415 -0.63459,0.53898 -1.29294,0.36432 -0.38809,0.59221 c -0.21343,0.32573 -0.76419,0.82518 -1.22421,1.10949 l -0.83665,0.51677 -1.14773,2.01796 -1.14825,2.01797 0.17467,0.84336 c 0.0962,0.46374 0.23652,1.26008 0.31212,1.7694 l 0.13746,0.92604 -0.62528,0.92604 -0.62529,0.92604 -1.1808,0.5793 10e-4,5.1e-4 c -1.56589,0.76879 -3.849279,0.4312 -11.764141,-1.73839 -1.600727,-0.43879 -3.188415,-0.80384 -3.52795,-0.81184 -0.339535,-0.008 -2.423132,-0.61901 -4.630208,-1.35857 l -4.012675,-1.34462 -3.042709,-1.58647 c -1.673488,-0.87234 -3.280833,-1.80285 -3.571875,-2.06809 -0.291041,-0.26523 -1.706058,-1.08571 -3.144511,-1.82315 -1.438452,-0.73743 -2.807673,-1.5026 -3.042708,-1.70067 -0.235036,-0.19808 -0.880517,-0.61878 -1.434538,-0.93482 l -1.00769,-0.57465 h -0.658358 -0.658874 l -0.450619,-0.78858 -0.450618,-0.78806 -0.778764,-0.3235 c -0.428332,-0.17788 -1.34152,-0.80508 -2.029334,-1.39423 -0.687813,-0.58915 -1.605685,-1.30938 -2.039668,-1.60042 -2.152343,-1.44342 -3.514295,-2.58696 -5.713347,-4.7966 -2.854338,-2.86809 -6.410208,-6.71829 -6.986137,-7.5644 -0.226061,-0.3321 -0.934157,-1.19305 -1.573547,-1.91306 -0.63939,-0.72 -1.404416,-1.79156 -1.700155,-2.38125 -0.295739,-0.58968 -0.748882,-1.3099 -1.006657,-1.60094 -0.731707,-0.82613 -3.175516,-4.45324 -3.175516,-4.71289 0,-0.12807 -0.224398,-0.54856 -0.498678,-0.93482 -0.688869,-0.97013 -1.555376,-2.54858 -3.744991,-6.82388 l -1.878438,-3.66799 -0.888835,-2.51354 c -0.488898,-1.38245 -1.238534,-3.46604 -1.666048,-4.63021 l -0.777214,-2.11667 -0.685229,-3.175 c -0.376656,-1.74625 -0.950569,-4.78234 -1.275374,-6.74687 l -0.590662,-3.57188 -0.114722,-5.55625 -0.115238,-5.55625 0.311092,-4.10104 c 0.482298,-6.36347 1.272132,-11.562495 2.270662,-14.948958 1.849841,-6.273635 3.317054,-11.7954 3.550688,-13.361458 0.107563,-1.592717 1.0414,-2.93537 1.735295,-4.337203 0.856813,-1.730424 1.808237,-3.516363 2.114082,-3.96875 0.305845,-0.452387 1.227893,-1.909943 2.048971,-3.239079 2.379077,-3.851171 6.380753,-8.909286 8.629447,-10.908378 0.386896,-0.343951 1.77488,-1.661212 3.084567,-2.926953 2.128522,-2.0571 3.29946,-3.080847 7.284826,-6.369637 2.351884,-1.940814 14.982514,-9.346958 16.924549,-9.923942 0.363801,-0.108086 1.933992,-0.775317 3.489709,-1.482597 5.866148,-2.666943 16.840943,-5.791378 20.341911,-5.791378 3.045717,-0.569017 8.037869,-0.856 13.474749,-0.793759 z M 94.909452,72.248303 94.785429,72.77747 c -0.06808,0.291042 -0.411139,1.487594 -0.762744,2.659269 l -0.639754,2.130103 v 1.067118 c 0,0.5867 0.07972,1.145808 0.176733,1.242818 0.412219,0.41222 0.554751,0.03011 0.993738,-2.667537 0.54153,-3.327808 0.495282,-2.881906 0.418062,-4.034896 z m -1.923396,8.593274 -0.325562,0.213424 -0.325562,0.21394 -0.129191,1.964221 -0.129191,1.964738 -0.591695,0.446485 -0.591695,0.446484 -0.181384,2.112533 -0.181901,2.112532 -0.583427,0.789099 -0.583427,0.789616 -0.255282,3.273702 -0.255798,3.273702 -0.378788,0.583944 -0.379305,0.583944 -1.112594,-0.392741 -1.11311,-0.392741 -1.468128,0.157613 -1.468127,0.157613 c -0.561161,-0.231292 -1.897936,-1.098485 -2.642733,-1.426786 -2.018109,-0.889574 -2.700911,-0.349151 -2.703711,0.08372 l 4.238501,2.569351 0.835091,0.69194 c 0.186089,0.15413 0.09625,0.37382 -0.0021,0.62581 -0.05155,-0.0718 -0.117344,-0.18454 -0.157613,-0.23306 -0.190707,-0.22979 -4.597083,-3.707011 -6.089034,-3.361553 0,0 -0.206191,0.126155 -0.343131,0.679029 -0.136941,0.552873 4.467482,3.189154 5.753137,4.015774 0.537321,0.34547 0.809272,0.4265 1.047998,0.47852 l 0.552938,0.4222 c 0.487266,0.37166 1.29094,0.85232 1.785937,1.06815 l 0.900204,0.39222 -0.732255,0.0217 -0.731739,0.0217 -1.636076,1.19063 c -0.899946,0.65485 -1.761311,1.20163 -1.914095,1.21543 -0.152784,0.0142 -1.52766,0.0242 -3.055627,0.0222 l -2.778125,-0.003 -1.190625,-0.28009 c -0.654843,-0.15415 -1.52653,-0.2828 -1.936833,-0.2868 l -0.746207,-0.006 0.169498,1.19063 2.248959,0.27854 c 1.236925,0.15296 2.464493,0.37677 2.728515,0.49764 l 0.480074,0.21962 1.37201,-0.18706 c 0.754622,-0.10305 2.146433,-0.2739 3.092317,-0.37931 l 1.719792,-0.19172 0.856278,-0.45423 0.856279,-0.45476 -0.312643,0.73277 c -0.17211,0.40296 -0.42321,0.88109 -0.558105,1.06299 l -0.245463,0.33073 H 82.93654 82.079744 l -1.028877,0.71572 -1.028878,0.7152 -1.719792,0.25063 -1.719791,0.25063 -4.365625,-0.0165 -4.365625,-0.017 0.56844,0.22324 c 0.312793,0.1227 1.554134,0.36702 2.758488,0.54312 l 2.189531,0.3204 2.66547,-0.15658 2.665987,-0.15658 1.86707,-0.64182 c 1.027159,-0.35278 2.227511,-0.82744 2.66702,-1.05472 l 0.798918,-0.4129 1.130164,0.28681 1.130163,0.2868 0.263033,-0.36948 0.263033,-0.37001 -0.176216,0.52917 c -0.09688,0.29104 -0.341566,1.16099 -0.543636,1.93322 l -0.36742,1.40404 -1.068668,1.34256 -1.068669,1.34255 v 0.62787 0.62787 l -1.322917,1.37252 -1.322916,1.37253 v 0.48162 0.48215 l -1.389063,0.8971 c -0.763983,0.49342 -1.536454,1.14261 -1.716174,1.44229 l -0.326595,0.54467 -2.246375,1.11879 c -2.564943,1.27736 -2.703282,1.52547 -0.492993,0.88419 l 1.540991,-0.447 1.5875,-0.95033 c 3.12938,-1.87291 4.942997,-4.02715 7.065719,-8.39122 l 1.158585,-2.38125 0.559656,-0.0811 0.559656,-0.0811 0.553455,0.59428 0.553971,0.59428 -0.0067,1.8681 c -0.0036,1.02759 -0.116334,2.34487 -0.250631,2.92696 -0.134297,0.58208 -0.266679,1.7727 -0.294039,2.64583 l -0.04961,1.5875 0.430465,3.04271 c 0.236652,1.67349 0.464403,3.1061 0.440283,3.175 -0.437271,1.2494 0.296445,0.96732 0.606164,0.71107 l 0.442351,-0.36639 -0.07545,-1.83141 -0.502812,-2.41071 -0.40566,-3.5109 0.112138,-3.57187 0.204639,-0.47077 c 0.11259,-0.25871 0.417298,-0.58423 0.677478,-0.72347 l 0.473356,-0.25322 1.420068,1.38493 1.419552,1.38545 2.060339,1.05833 2.06034,1.05833 h 3.093355 3.09283 l 1.66501,-0.90278 1.66501,-0.90279 1.4051,-1.51774 1.40507,-1.51773 0.73329,-1.81281 0.7338,-1.81281 0.13488,-1.78594 0.13436,-1.78542 -0.70022,-1.91875 c -0.84868,-2.32471 -1.34126,-3.10014 -3.09232,-4.86998 l -1.34927,-1.36375 -1.56579,-0.83457 -1.5658,-0.83406 v -0.35398 -0.35398 l 0.9803,-0.86093 0.9803,-0.860413 1.4671,-0.659391 c 0.80701,-0.362688 1.64608,-0.812988 1.86448,-1.000456 0.2184,-0.187468 1.40903,-0.899928 2.64584,-1.583366 l 2.24844,-1.242301 2.06447,-1.859318 2.06396,-1.859318 1.64021,-2.054138 c 0.902,-1.129817 1.85562,-2.451143 2.11925,-2.936255 l 0.47956,-0.8816 -1.48725,1.5875 c -0.81788,0.873124 -1.65466,1.900968 -1.85932,2.284098 l -0.37207,0.696599 -0.62942,0.157613 -0.62942,0.15813 -1.18339,1.265039 c -0.65079,0.695748 -1.29457,1.442149 -1.4304,1.658813 -0.13582,0.216664 -0.9374,0.738888 -1.78129,1.160653 -0.8439,0.421764 -1.97499,1.118041 -2.51354,1.547192 -0.53856,0.429153 -1.33646,0.96214 -1.77302,1.183907 -0.43657,0.221766 -1.68064,1.002709 -2.76469,1.735812 l -1.97094,1.333251 -1.33221,0.486792 c -0.7329,0.267877 -1.66973,0.487307 -2.081526,0.487307 -0.411803,0 -0.99538,0.13181 -1.296562,0.293 l -0.547253,0.29301 0.174666,-0.69557 0.17415,-0.69504 -0.270785,-0.505912 -0.270784,-0.505912 0.859895,-0.593246 c 4.549479,-3.137474 12.967289,-12.691088 12.018379,-13.639994 -0.18408,-0.184078 -2.56005,2.812003 -2.56005,3.228227 v 0.359668 l -1.83916,1.865519 c -1.01162,1.025768 -1.94764,1.865002 -2.07998,1.865002 -0.13235,0 -1.02358,0.803674 -1.98075,1.785938 -0.95718,0.982265 -2.491722,2.519716 -3.410127,3.416845 l -1.670182,1.630909 -1.139466,0.564823 -1.139465,0.564823 -0.448035,-0.144694 c -0.246386,-0.07972 -0.719149,-0.544475 -1.050582,-1.032495 L 92.574726,97.594487 92.832075,95.3724 c 0.141499,-1.222066 0.379227,-2.578757 0.528133,-3.015319 0.148905,-0.436562 0.518398,-2.356946 0.821138,-4.26744 l 0.550354,-3.47369 -0.07906,-1.817977 -0.07906,-1.817977 -0.79375,-0.06925 z m 0.790132,1.911511 c 0.180885,-0.0515 0.291248,0.336836 0.320911,1.179773 l 0.05271,1.497067 -0.260966,0.487825 -0.260966,0.488342 -0.01602,1.519804 -0.01602,1.520321 -0.503328,0.472839 -0.503328,0.473356 v 1.412834 1.412317 l -0.421163,1.008207 -0.421163,1.008207 0.171565,1.371493 0.171566,1.372009 -0.430465,0.430465 -0.430981,0.430981 h -0.494543 c -0.677803,0 -0.745654,-0.174972 -0.828374,-2.130102 l -0.07235,-1.706356 1.013892,-3.307292 c 0.557708,-1.819008 1.225326,-4.110544 1.48363,-5.092195 0.646503,-2.456944 1.143916,-3.764065 1.44539,-3.849895 z M 60.865019,103.58231 c -0.72642,-0.0401 -1.449206,-0.04 -2.141472,0.0294 l -0.141593,0.36897 0.525032,0.34572 c 1.289333,0.37167 2.443984,0.37564 3.673678,0.96945 0.867894,0.32454 1.889568,1.07018 2.821017,1.02578 0.217288,-0.32811 0.363403,-1.26073 0.373103,-1.66657 -1.530114,-0.5958 -2.050234,-0.66229 -2.947623,-0.863 -0.706026,-0.0897 -1.435723,-0.16976 -2.162142,-0.2098 z m 5.976896,1.45469 c -0.193281,0.54192 -0.307099,1.07622 -0.330729,1.65881 l 2.871659,0.71676 1.203027,0.0842 c 0.07181,-0.372 0.1853,-0.64948 -0.02222,-0.98961 -0.806845,-0.44464 -0.908892,-0.46187 -1.743563,-0.84749 -0.387735,-0.15517 -1.564583,-0.5459 -1.978174,-0.6227 z m 22.10046,26.47797 -0.36897,0.56741 0.182935,2.68304 c -0.177432,2.24714 -0.02754,2.07609 1.011824,1.10794 l 0.07906,-1.63504 c 0.03825,-0.78821 -0.05356,-1.88391 -0.275435,-2.10272 z m 0.430464,5.2989 -0.264066,0.47232 -0.264067,0.47181 0.21239,2.69906 0.212907,2.69958 0.238745,-2.42518 0.238745,-2.42517 -0.187068,-0.74621 z m 29.980601,69.44589 h 0.22324 l -0.007,0.46302 c -0.004,0.25466 -0.61057,1.83224 -1.34824,3.50573 -0.73767,1.67349 -1.51757,3.51804 -1.73323,4.09898 -0.21566,0.58093 -0.51626,1.20601 -0.66818,1.38906 h -5.1e-4 c -0.54957,0.66219 -0.84122,0.39964 -1.89963,-1.70894 l -0.69298,-1.38028 0.004,-0.73639 c 0.005,-0.95039 0.14265,-1.13037 1.64538,-2.15284 0.68899,-0.46878 1.92807,-1.4436 2.75332,-2.16576 0.82525,-0.72215 1.60105,-1.31258 1.72393,-1.31258 z" /></g></svg>
